<?xml version="1.0" encoding="UTF-8" standalone="no"?>
<svg
   xmlns="http://www.w3.org/2000/svg"
   id="svg8"
   version="1.1"
   viewBox="0 0 27.648886 27.648886"
   height="27.648886mm"
   width="27.648886mm">
  <style>
   #logo {
      fill-rule: nonzero;
      stroke: #000000;
    }
    #logo-teeth {
      stroke: #000000;
      stroke-width: 0.92px;
    }
    @media (prefers-color-scheme: dark) {
      #logo {
        fill: #FFFFFF;
        fill-rule: nonzero;
        stroke: #FFFFFF;
      }
      #logo-teeth {
        fill: #FFFFFF;
        stroke: #FFFFFF;
        stroke-width: 0.92px;
      }
    }
</style>
  <defs
     id="defs2" />
  <sodipodi:namedview
     inkscape:window-maximized="1"
     inkscape:window-y="27"
     inkscape:window-x="0"
     inkscape:window-height="1016"
     inkscape:window-width="1920"
     fit-margin-bottom="0"
     fit-margin-right="0"
     fit-margin-left="0"
     fit-margin-top="0"
     showgrid="false"
     inkscape:document-rotation="0"
     inkscape:current-layer="layer1"
     inkscape:document-units="mm"
     inkscape:cy="52.409005"
     inkscape:cx="34.559893"
     inkscape:zoom="11.2"
     inkscape:pageshadow="2"
     inkscape:pageopacity="0.0"
     borderopacity="1.0"
     bordercolor="#666666"
     pagecolor="#ffffff"
     id="base" />
  <metadata
     id="metadata5">
    <rdf:RDF>
      <cc:Work
         rdf:about="">
        <dc:format>image/svg+xml</dc:format>
        <dc:type
           rdf:resource="http://purl.org/dc/dcmitype/StillImage" />
        <dc:title></dc:title>
      </cc:Work>
    </rdf:RDF>
  </metadata>
  <g
     transform="translate(-36.758957,-24.659821)"
     id="layer1"
     inkscape:groupmode="layer"
     inkscape:label="Layer 1">
    <g
       id="logo">
      <path
         sodipodi:nodetypes="cscccccccsccccccccccscscccscscscc"
         id="path1892"
         d="m 46.151598,38.615717 c 0.292984,0.0651 0.53988,0.212828 0.740689,0.44319 0.20081,0.230357 0.375284,0.563375 0.523422,0.999052 l 1.076469,3.124857 h 0.755504 v 0.908912 H 46.823157 L 45.647929,40.703962 C 45.420784,40.002873 45.226559,39.557181 45.065253,39.366884 44.907239,39.17158 44.686678,39.073929 44.40357,39.073929 h -0.301214 v 4.108887 h 0.948083 v 0.908912 h -3.792332 v -0.908912 h 0.943145 v -9.397105 l -0.846527,-0.134544 -0.09662,-0.774369 h 4.207119 c 0.855907,0 1.515945,0.262908 1.98011,0.788725 0.467458,0.52081 0.701187,1.261962 0.701187,2.223457 0,0.781213 -0.166244,1.399674 -0.498732,1.855384 -0.329195,0.450699 -0.827926,0.741151 -1.496193,0.871353 z m -2.049242,-0.443189 h 0.646869 c 0.460873,0 0.814759,-0.190295 1.061656,-0.570887 0.250188,-0.380592 0.375282,-0.923936 0.375282,-1.630034 0,-0.706097 -0.125094,-1.246937 -0.375282,-1.62252 -0.246897,-0.375585 -0.600783,-0.563376 -1.061656,-0.563376 h -0.646869 z" />
      <path
         id="path1894"
         d="m 49.613088,44.091728 v -0.908912 h 0.938207 v -9.397105 h -0.938207 v -0.908913 h 3.041767 l 2.103559,7.196184 2.113435,-7.196184 h 3.036829 v 0.908913 h -0.943145 v 9.397105 h 0.943145 v 0.908912 h -3.792333 v -0.908912 h 0.938207 v -8.555798 l -2.286262,7.819653 h -1.249297 l -2.276387,-7.819653 v 8.555798 h 0.938207 v 0.908912 z" />
      <path
         sodipodi:nodetypes="sssssccccsccssccsccccccccccccccccccccccsccssccs"
         d="m 50.583401,25.97741 c -6.895042,0 -12.506854,5.614459 -12.506854,12.506854 0,6.892396 5.614458,12.506854 12.506854,12.506854 6.892395,0 12.506854,-5.614458 12.506854,-12.506854 0,-6.892395 -5.614459,-12.506854 -12.506854,-12.506854 z m -0.01852,1.11125 c 0.444701,0.01152 0.79919,0.37657 0.799041,0.822854 0,1.097139 -1.645708,1.097139 -1.645708,0 -1.94e-4,-0.463914 0.382947,-0.836279 0.846667,-0.822854 z m -9.81075,7.445375 c 0.445124,0.01289 0.799228,0.377544 0.799042,0.822854 0,1.097139 -1.645709,1.097139 -1.645709,0 -1.94e-4,-0.463914 0.382947,-0.836279 0.846667,-0.822854 z m 19.618854,0.03704 c 0.445124,0.01289 0.799227,0.377543 0.799041,0.822854 0,1.097138 -1.645708,1.097138 -1.645708,0 -1.93e-4,-0.463914 0.382947,-0.836279 0.846667,-0.822854 z m -2.57175,10.919354 -1.738313,-0.373063 c -0.404812,-0.08731 -0.804333,0.17198 -0.891645,0.576792 l -0.41275,1.926167 c -2.685828,1.21667 -5.768584,1.202179 -8.442855,-0.03969 l -0.41275,-1.926166 c -0.08731,-0.404813 -0.484187,-0.664105 -0.888999,-0.576792 l -1.701271,0.365125 C 41.493589,43.488258 40.32819,39.542155 40.516006,37.304219 l 1.772708,-0.788459 c 0.378354,-0.169333 0.550334,-0.611187 0.381,-0.989541 l -0.365125,-0.822855 c -1.046481,-0.917657 -0.607508,-1.531987 0.735542,-3.063874 1.485374,-1.65936 3.476379,-2.782729 5.664729,-3.196167 l 1.267354,1.328208 c 0.28575,0.298979 0.759354,0.312209 1.058333,0.02381 l 1.418167,-1.352021 c 2.923705,0.54762 5.458733,2.353102 6.932083,4.937125 l -0.971021,2.19075 c -0.166687,0.378354 0.0053,0.822854 0.381,0.992187 l 1.867959,0.828146 c 0.06556,2.864057 -0.888259,6.109698 -2.8575,8.098896 z m -13.329708,0.629708 c 0.445124,0.01289 0.799228,0.377545 0.799041,0.822854 0,1.097137 -1.645708,1.097137 -1.645708,0 -1.94e-4,-0.463915 0.382947,-0.836279 0.846667,-0.822854 z m 12.184062,0.03704 c 0.445124,0.01289 0.799228,0.377544 0.799042,0.822854 0,1.097137 -1.645709,1.097137 -1.645709,0 -1.94e-4,-0.463915 0.382947,-0.836279 0.846667,-0.822854 z"
         id="path897"
         style="stroke-width:0.264583" />
    </g>
    <path
       d="M 62.391755,38.484264 A 11.808354,11.808354 0 0 1 50.583401,50.292618 11.808354,11.808354 0 0 1 38.775047,38.484264 11.808354,11.808354 0 0 1 50.583401,26.67591 11.808354,11.808354 0 0 1 62.391755,38.484264 Z m -0.22225,-1.140354 1.8415,1.140354 -1.8415,1.140354 1.582208,1.479021 -2.026708,0.759354 1.264708,1.75948 -2.140479,0.34925 0.899583,1.973791 -2.166937,-0.07673 0.497416,2.111375 -2.111375,-0.497417 0.07673,2.166938 -1.973792,-0.899584 -0.34925,2.14048 -1.759479,-1.264709 -0.759354,2.026709 -1.479021,-1.582209 -1.140354,1.8415 -1.140355,-1.8415 -1.47902,1.582209 -0.759355,-2.026709 -1.759479,1.264709 -0.34925,-2.14048 -1.973791,0.899584 0.07673,-2.166938 -2.111375,0.497417 0.497417,-2.111375 -2.166938,0.07673 0.899583,-1.973791 -2.140479,-0.34925 1.264709,-1.75948 -2.026709,-0.759354 1.582209,-1.479021 -1.8415,-1.140354 1.8415,-1.140354 -1.582209,-1.479021 2.026709,-0.759354 -1.264709,-1.759479 2.140479,-0.34925 -0.899583,-1.973792 2.166938,0.07673 -0.497417,-2.111375 2.111375,0.497416 -0.07673,-2.166937 1.973791,0.899583 0.34925,-2.140479 1.759479,1.264708 0.759355,-2.026708 1.47902,1.582208 1.140355,-1.8415 1.140354,1.8415 1.479021,-1.582208 0.759354,2.026708 1.759479,-1.264708 0.34925,2.140479 1.973792,-0.899583 -0.07673,2.166937 2.111375,-0.497416 -0.497416,2.111375 2.166937,-0.07673 -0.899583,1.973792 2.140479,0.34925 -1.264708,1.759479 2.026708,0.759354 z"
       fill-rule="evenodd"
       stroke-linecap="round"
       stroke-linejoin="round"
       stroke-width="0.79375"
       id="logo-teeth" />
  </g>
</svg>
