<svg width="27.649mm" height="27.649mm" version="1.1" viewBox="0 0 27.649 27.649">
 <style>#logo {
      fill-rule: nonzero;
      stroke: #000000;
    }
    #logo-teeth {
      stroke: #000000;
      stroke-width: 0.92px;
    }
    @media (prefers-color-scheme: dark) {
      #logo {
        fill: #FFFFFF;
        fill-rule: nonzero;
        stroke: #FFFFFF;
      }
      #logo-teeth {
        fill: #FFFFFF;
        stroke: #FFFFFF;
        stroke-width: 0.92px;
      }
    }</style>
 <g transform="translate(-36.759 -24.66)">
  <g stroke="#000">
   <path d="m46.152 38.616c0.29298 0.0651 0.53988 0.21283 0.74069 0.44319s0.37528 0.56338 0.52342 0.99905l1.0765 3.1249h0.7555v0.90891h-2.4245l-1.1752-3.3878c-0.22714-0.70109-0.42137-1.1468-0.58268-1.3371-0.15801-0.1953-0.37858-0.29296-0.66168-0.29296h-0.30121v4.1089h0.94808v0.90891h-3.7923v-0.90891h0.94314v-9.3971l-0.84653-0.13454-0.09662-0.77437h4.2071c0.85591 0 1.5159 0.26291 1.9801 0.78872 0.46746 0.52081 0.70119 1.262 0.70119 2.2235 0 0.78121-0.16624 1.3997-0.49873 1.8554-0.3292 0.4507-0.82793 0.74115-1.4962 0.87135zm-2.0492-0.44319h0.64687c0.46087 0 0.81476-0.1903 1.0617-0.57089 0.25019-0.38059 0.37528-0.92394 0.37528-1.63 0-0.7061-0.12509-1.2469-0.37528-1.6225-0.2469-0.37558-0.60078-0.56338-1.0617-0.56338h-0.64687z"/>
   <path d="m49.613 44.092v-0.90891h0.93821v-9.3971h-0.93821v-0.90891h3.0418l2.1036 7.1962 2.1134-7.1962h3.0368v0.90891h-0.94314v9.3971h0.94314v0.90891h-3.7923v-0.90891h0.93821v-8.5558l-2.2863 7.8197h-1.2493l-2.2764-7.8197v8.5558h0.93821v0.90891z"/>
   <path d="m50.583 25.977c-6.895 0-12.507 5.6145-12.507 12.507 0 6.8924 5.6145 12.507 12.507 12.507 6.8924 0 12.507-5.6145 12.507-12.507 0-6.8924-5.6145-12.507-12.507-12.507zm-0.01852 1.1112c0.4447 0.01152 0.79919 0.37657 0.79904 0.82285 0 1.0971-1.6457 1.0971-1.6457 0-1.94e-4 -0.46391 0.38295-0.83628 0.84667-0.82285zm-9.8108 7.4454c0.44512 0.01289 0.79923 0.37754 0.79904 0.82285 0 1.0971-1.6457 1.0971-1.6457 0-1.94e-4 -0.46391 0.38295-0.83628 0.84667-0.82285zm19.619 0.03704c0.44512 0.01289 0.79923 0.37754 0.79904 0.82285 0 1.0971-1.6457 1.0971-1.6457 0-1.93e-4 -0.46391 0.38295-0.83628 0.84667-0.82285zm-2.5718 10.919-1.7383-0.37306c-0.40481-0.08731-0.80433 0.17198-0.89164 0.57679l-0.41275 1.9262c-2.6858 1.2167-5.7686 1.2022-8.4429-0.03969l-0.41275-1.9262c-0.08731-0.40481-0.48419-0.6641-0.889-0.57679l-1.7013 0.36512c-1.8191-1.9545-2.9845-5.9006-2.7966-8.1386l1.7727-0.78846c0.37835-0.16933 0.55033-0.61119 0.381-0.98954l-0.36512-0.82286c-1.0465-0.91766-0.60751-1.532 0.73554-3.0639 1.4854-1.6594 3.4764-2.7827 5.6647-3.1962l1.2674 1.3282c0.28575 0.29898 0.75935 0.31221 1.0583 0.02381l1.4182-1.352c2.9237 0.54762 5.4587 2.3531 6.9321 4.9371l-0.97102 2.1908c-0.16669 0.37835 0.0053 0.82285 0.381 0.99219l1.868 0.82815c0.06556 2.8641-0.88826 6.1097-2.8575 8.0989zm-13.33 0.62971c0.44512 0.01289 0.79923 0.37754 0.79904 0.82285 0 1.0971-1.6457 1.0971-1.6457 0-1.94e-4 -0.46392 0.38295-0.83628 0.84667-0.82285zm12.184 0.03704c0.44512 0.01289 0.79923 0.37754 0.79904 0.82285 0 1.0971-1.6457 1.0971-1.6457 0-1.94e-4 -0.46392 0.38295-0.83628 0.84667-0.82285z" stroke-width=".26458"/>
  </g>
  <path id="logo-teeth" d="m62.392 38.484a11.808 11.808 0 0 1-11.808 11.808 11.808 11.808 0 0 1-11.808-11.808 11.808 11.808 0 0 1 11.808-11.808 11.808 11.808 0 0 1 11.808 11.808zm-0.22225-1.1404 1.8415 1.1404-1.8415 1.1404 1.5822 1.479-2.0267 0.75935 1.2647 1.7595-2.1405 0.34925 0.89958 1.9738-2.1669-0.07673 0.49742 2.1114-2.1114-0.49742 0.07673 2.1669-1.9738-0.89958-0.34925 2.1405-1.7595-1.2647-0.75935 2.0267-1.479-1.5822-1.1404 1.8415-1.1404-1.8415-1.479 1.5822-0.75936-2.0267-1.7595 1.2647-0.34925-2.1405-1.9738 0.89958 0.07673-2.1669-2.1114 0.49742 0.49742-2.1114-2.1669 0.07673 0.89958-1.9738-2.1405-0.34925 1.2647-1.7595-2.0267-0.75935 1.5822-1.479-1.8415-1.1404 1.8415-1.1404-1.5822-1.479 2.0267-0.75935-1.2647-1.7595 2.1405-0.34925-0.89958-1.9738 2.1669 0.07673-0.49742-2.1114 2.1114 0.49742-0.07673-2.1669 1.9738 0.89958 0.34925-2.1405 1.7595 1.2647 0.75936-2.0267 1.479 1.5822 1.1404-1.8415 1.1404 1.8415 1.479-1.5822 0.75935 2.0267 1.7595-1.2647 0.34925 2.1405 1.9738-0.89958-0.07673 2.1669 2.1114-0.49742-0.49742 2.1114 2.1669-0.07673-0.89958 1.9738 2.1405 0.34925-1.2647 1.7595 2.0267 0.75935z" fill-rule="evenodd" stroke-linecap="round" stroke-linejoin="round" stroke-width=".79375"/>
 </g>
</svg>
